<svg width="16" height="16" viewBox="0 0 16 16" fill="none" xmlns="http://www.w3.org/2000/svg">
<path fill-rule="evenodd" clip-rule="evenodd" d="M14.4543 6.48633C14.1963 5.38899 13.051 5.33233 12.1303 5.28633C11.551 5.25699 10.9517 5.22766 10.701 4.96833C10.4457 4.70433 10.2463 4.19833 10.0523 3.70899C9.67434 2.75166 9.24568 1.66699 8.16634 1.66699C7.08768 1.66699 6.6597 2.75166 6.28103 3.70899C6.0877 4.19833 5.8877 4.70433 5.63303 4.96833C5.3817 5.22766 4.78236 5.25699 4.20303 5.28633C3.28236 5.33233 2.13703 5.38899 1.87903 6.48633C1.63436 7.52767 2.39903 8.15767 3.0737 8.71367C3.53503 9.09367 3.97103 9.45367 4.0677 9.89367C4.1617 10.321 4.02036 10.873 3.8837 11.4077C3.64903 12.327 3.38236 13.3683 4.27236 14.0397C4.55036 14.2497 4.83236 14.333 5.11103 14.333C5.71436 14.333 6.30236 13.9437 6.80568 13.6103C7.27168 13.3023 7.75368 12.983 8.16634 12.983C8.57901 12.983 9.06168 13.3023 9.52701 13.6103C10.2637 14.0977 11.1797 14.703 12.0617 14.0397C12.9517 13.3683 12.685 12.3263 12.4497 11.4063C12.313 10.8723 12.1723 10.3203 12.2657 9.89367C12.3623 9.45367 12.7983 9.09433 13.2597 8.71367C13.9343 8.15767 14.699 7.52767 14.4543 6.48633Z" fill="#E8B931"/>
</svg>
